<svg xmlns="http://www.w3.org/2000/svg" width="128" height="128" viewBox="0 0 24 24"><g fill="none" fill-rule="evenodd"><path d="m12.593 23.258l-.011.002l-.071.035l-.02.004l-.014-.004l-.071-.035q-.016-.005-.024.005l-.004.01l-.017.428l.005.02l.01.013l.104.074l.015.004l.012-.004l.104-.074l.012-.016l.004-.017l-.017-.427q-.004-.016-.017-.018m.265-.113l-.013.002l-.185.093l-.01.01l-.003.011l.018.43l.005.012l.008.007l.201.093q.019.005.029-.008l.004-.014l-.034-.614q-.005-.018-.02-.022m-.715.002a.02.02 0 0 0-.027.006l-.006.014l-.034.614q.001.018.017.024l.015-.002l.201-.093l.01-.008l.004-.011l.017-.43l-.003-.012l-.01-.01z"/><path fill="#adadad" d="M13.414 2.1a2 2 0 0 0-2.828 0L8.686 4H6a2 2 0 0 0-2 2v2.686l-1.9 1.9a2 2 0 0 0 0 2.828l1.9 1.9V18a2 2 0 0 0 2 2h2.686l1.9 1.9a2 2 0 0 0 2.828 0l1.9-1.9H18a2 2 0 0 0 2-2v-2.686l1.9-1.9a2 2 0 0 0 0-2.828l-1.9-1.9V6a2 2 0 0 0-2-2h-2.686zM12 3.516l1.9 1.9A2 2 0 0 0 15.313 6H18v2.686a2 2 0 0 0 .586 1.415l1.9 1.9l-1.9 1.899A2 2 0 0 0 18 15.314V18h-2.686a2 2 0 0 0-1.415.586l-1.9 1.9l-1.899-1.9A2 2 0 0 0 8.686 18H6v-2.686a2 2 0 0 0-.586-1.415L3.514 12l1.9-1.9A2 2 0 0 0 6 8.687V6h2.686a2 2 0 0 0 1.414-.586l1.9-1.9ZM10 12a2 2 0 1 1 4 0a2 2 0 0 1-4 0m2-4a4 4 0 1 0 0 8a4 4 0 0 0 0-8"/></g></svg>