<svg xmlns="http://www.w3.org/2000/svg" width="128" height="128" viewBox="0 0 24 24"><g fill="none"><path d="m12.593 23.258l-.011.002l-.071.035l-.02.004l-.014-.004l-.071-.035q-.016-.005-.024.005l-.004.01l-.017.428l.005.02l.01.013l.104.074l.015.004l.012-.004l.104-.074l.012-.016l.004-.017l-.017-.427q-.004-.016-.017-.018m.265-.113l-.013.002l-.185.093l-.01.01l-.003.011l.018.43l.005.012l.008.007l.201.093q.019.005.029-.008l.004-.014l-.034-.614q-.005-.018-.02-.022m-.715.002a.02.02 0 0 0-.027.006l-.006.014l-.034.614q.001.018.017.024l.015-.002l.201-.093l.01-.008l.004-.011l.017-.43l-.003-.012l-.01-.01z"/><path fill="#adadad" d="M12 2c5.523 0 10 4.477 10 10s-4.477 10-10 10a9.95 9.95 0 0 1-5.168-1.438l-3.032.892A1.01 1.01 0 0 1 2.546 20.2l.892-3.032A9.96 9.96 0 0 1 2 12C2 6.477 6.477 2 12 2m0 2a8 8 0 0 0-6.759 12.282c.227.357.305.807.177 1.24l-.441 1.501l1.501-.441c.433-.128.883-.05 1.24.177A8 8 0 1 0 12 4m-3.5 6.5a1.5 1.5 0 1 1 0 3a1.5 1.5 0 0 1 0-3m7 0a1.5 1.5 0 1 1 0 3a1.5 1.5 0 0 1 0-3"/></g></svg>